# xmcd
#
# Track frame offsets: 
#        150
#        26817
#        57589
#        80912
#        92917
#        120367
#        146292
#        169242
#        196382
#        221840
#        243025
#
# Disc length: 3871 seconds
#
# Revision: 0
# Processed by: cddbd v1.4PL0 Copyright (c) Steve Scherf et al.
# Submitted via: ExactAudioCopy v0.90b4
#
DISCID=9d0f1d0b
DTITLE=Various Artist - ambiente, basso e batteria
DYEAR=1996
DGENRE=Drum and Bass
TTITLE0=straight beat - luminescenze
TTITLE1=the bassociation feat. di malta - searching
TTITLE2=ghittoni - x tatic dawn (straight beat mix)
TTITLE3=abstract audio - middle of nowhere
TTITLE4=the bassociation - side effect
TTITLE5=s-tone inc. - time (the bassociation mix)
TTITLE6=way to love feat. laura piccinelli - way to love (unity mix)
TTITLE7=che - essenziale
TTITLE8=periferico - on line
TTITLE9=vibrazioni productions - so deep (a deeper mix2)
TTITLE10=gak sato - partenza (ver.2.5)
EXTD=concept and co-ordination by fred ventura for vibrazioni producti
EXTD=ons - milano 2000.\nishtar
EXTT0=
EXTT1=
EXTT2=
EXTT3=
EXTT4=
EXTT5=
EXTT6=
EXTT7=
EXTT8=
EXTT9=
EXTT10=
PLAYORDER=
